# xmcd
#
# Track frame offsets: 
#        150
#        16153
#        32426
#        49086
#        69034
#        83541
#        95729
#        116530
#        134193
#        150161
#        165156
#        177525
#        190393
#        201779
#        219888
#        230514
#        245596
#        265107
#        274749
#        293498
#
# Disc length: 4067 seconds
#
# Revision: 1
# Processed by: cddbd v1.5.2PL0 Copyright (c) Steve Scherf et al.
# Submitted via: ExactAudioCopy v1.0b3
#
DISCID=070fe114
DTITLE=Jack Lerole - Penny Whistle Classics
DYEAR=2003
DGENRE=World
TTITLE0=A Swingin Safari
TTITLE1=Phata Phata
TTITLE2=The Lion Sleeps tonight
TTITLE3=Skokiaan
TTITLE4=Ace Blues
TTITLE5=Zambezi
TTITLE6=Special Star
TTITLE7=Meadowlands
TTITLE8=Chakuma
TTITLE9=Happy Trumpeter
TTITLE10=Penny Whistle
TTITLE11=Kwela Kong
TTITLE12=Tom Hark
TTITLE13=Marabi Party
TTITLE14=Basutoland
TTITLE15=Jiba Spokes
TTITLE16=Thembi Thembi
TTITLE17=Meva
TTITLE18=Staff Nurse
TTITLE19=Shova Spokes
EXTD=This collection of songs aims to celebrate and pay tribute to the
EXTD=enduring legacy of Kwela music: 50 years of songs that represent
EXTD=both a uniquely South African experience and equally a universal
EXTD=and timeless pop appeal.\n\nProduced by John Leyden and Kevin Ma
EXTD=nas at Hi Tech Studios, Johannesburg, South Africa\n\nPenny Whist
EXTD=les - Jack Lerole\nTrumpets - Donny Bouwer, Banza Kgasoane\nTromb
EXTD=one - Speedy Kobak\nKeyboards - Harold Wynkwardt\nVibes - Harold 
EXTD=Wynkwardt\nGuitars - Mauritz Lotz, Peter Khumalo\nDrums - Neil Et
EXTD=tridge, Godfrey Mgcina\nBass - John Leyden
EXTT0=
EXTT1=
EXTT2=
EXTT3=
EXTT4=
EXTT5=
EXTT6=
EXTT7=
EXTT8=
EXTT9=
EXTT10=
EXTT11=
EXTT12=
EXTT13=
EXTT14=
EXTT15=
EXTT16=
EXTT17=
EXTT18=
EXTT19=
PLAYORDER=
